<svg xmlns="http://www.w3.org/2000/svg" viewBox="0 0 900 400">
  <path d="M0 115 C42 115 78 115 118 108" fill="none" stroke="#000" stroke-width="7" stroke-linecap="round"/>
  <path d="M82.35 51.90Q81.00 54.00 78.45 57.68Q75.90 61.35 72.83 65.85Q69.75 70.35 66.60 75.38Q63.45 80.40 60.82 85.05Q58.20 89.70 56.55 93.75Q54.90 97.80 54.90 100.35Q54.90 105.90 60.60 105.90Q64.80 105.90 68.78 103.50Q72.75 101.10 76.28 97.35Q79.80 93.60 82.73 88.95Q85.65 84.30 87.90 79.95Q90.15 75.60 91.42 72.00Q92.70 68.40 93.00 66.60Q92.85 65.25 92.33 63.68Q91.80 62.10 91.80 60.00Q91.80 56.25 94.20 53.18Q96.60 50.10 100.65 50.10Q106.35 50.10 109.12 53.40Q111.90 56.70 111.90 62.10Q111.90 64.50 111.60 66.45Q111.30 68.40 110.70 70.50Q116.10 74.70 121.20 74.70Q123.75 74.70 125.78 73.95Q127.80 73.20 129.45 72.08Q131.10 70.95 132.38 69.60Q133.65 68.25 134.70 67.05L135.60 68.40Q133.50 71.25 129.75 73.88Q126.00 76.50 121.35 76.50Q117.90 76.50 115.20 75.30Q112.50 74.10 110.25 72.45Q107.85 79.65 102.53 86.03Q97.20 92.40 90.30 97.28Q83.40 102.15 75.60 104.93Q67.80 107.70 60.60 107.70Q52.05 107.70 46.57 104.55Q41.10 101.40 41.10 93.30Q41.10 91.80 41.47 90.15Q41.85 88.50 42.15 87.30L41.85 87.15Q39.45 90.45 36.52 94.05Q33.60 97.65 30.07 100.65Q26.55 103.65 22.42 105.68Q18.30 107.70 13.50 107.70Q7.20 107.70 3.60 103.58Q0.00 99.45 0.00 93.15Q0.00 89.85 1.27 86.18Q2.55 82.50 5.17 77.78Q7.80 73.05 11.62 66.98Q15.45 60.90 20.55 52.80L41.70 51.90Q40.35 54.30 37.80 58.05Q35.25 61.80 32.32 66.15Q29.40 70.50 26.40 75.23Q23.40 79.95 20.92 84.45Q18.45 88.95 16.88 92.78Q15.30 96.60 15.30 99.30Q15.30 103.80 19.35 103.80Q23.70 103.80 28.72 99.38Q33.75 94.95 38.70 88.35Q42.30 83.55 45.75 78.15Q49.20 72.75 52.12 67.80Q55.05 62.85 57.30 58.80Q59.55 54.75 60.90 52.65ZM158.85 50.70L153.60 58.80Q146.40 69.60 142.05 76.43Q137.70 83.25 135.30 87.53Q132.90 91.80 132.15 94.12Q131.40 96.45 131.40 98.25Q131.40 100.20 132.53 101.40Q133.65 102.60 135.45 102.60Q138.45 102.60 143.17 99.23Q147.90 95.85 153.53 89.40Q159.15 82.95 165.45 73.65Q171.75 64.35 177.90 52.50L199.65 51.90Q198.30 54.15 195.82 57.90Q193.35 61.65 190.28 66.08Q187.20 70.50 183.97 75.45Q180.75 80.40 178.12 84.98Q175.50 89.55 173.85 93.53Q172.20 97.50 172.20 100.05Q172.20 102.15 173.10 102.98Q174.00 103.80 175.50 103.80Q178.05 103.80 181.42 101.70Q184.80 99.60 188.62 96.23Q192.45 92.85 196.42 88.65Q200.40 84.45 203.92 80.25Q207.45 76.05 210.45 72.30Q213.45 68.55 215.25 66.15L216.60 67.35Q214.05 70.35 210.75 74.48Q207.45 78.60 203.62 83.10Q199.80 87.60 195.53 92.03Q191.25 96.45 186.75 99.90Q182.25 103.35 177.67 105.53Q173.10 107.70 168.60 107.70Q165.30 107.70 162.90 106.65Q160.50 105.60 159.00 103.80Q157.50 102.00 156.75 99.68Q156.00 97.35 156.00 94.95Q156.00 93.15 156.45 91.35Q156.90 89.55 157.35 88.35L157.05 88.05Q153.75 91.80 150.30 95.33Q146.85 98.85 143.10 101.62Q139.35 104.40 135.45 106.05Q131.55 107.70 127.50 107.70Q121.20 107.70 118.20 104.03Q115.20 100.35 115.20 94.65Q115.20 91.65 116.55 87.83Q117.90 84.00 120.00 79.80Q122.10 75.60 124.72 71.25Q127.35 66.90 129.75 63.08Q132.15 59.25 134.17 56.18Q136.20 53.10 137.25 51.30ZM312.75 0.00Q300.15 21.00 291.07 36.08Q282.00 51.15 275.70 61.73Q269.40 72.30 265.65 78.98Q261.90 85.65 259.88 89.70Q257.85 93.75 257.18 95.93Q256.50 98.10 256.50 99.75Q256.50 101.55 257.47 102.68Q258.45 103.80 260.55 103.80Q263.10 103.80 267.75 100.80Q272.40 97.80 277.20 93.00Q284.70 85.50 290.17 78.15Q295.65 70.80 298.65 66.60L300.00 67.35Q296.55 72.30 290.62 80.18Q284.70 88.05 276.75 95.85Q270.30 102.15 264.90 104.93Q259.50 107.70 253.80 107.70Q247.95 107.70 244.58 104.10Q241.20 100.50 241.20 95.10Q241.20 93.45 241.95 91.50L241.65 91.20Q236.40 97.95 229.58 102.83Q222.75 107.70 213.45 107.70Q206.40 107.70 202.95 103.05Q199.50 98.40 199.50 92.10Q199.50 83.40 203.78 75.75Q208.05 68.10 214.80 62.40Q221.55 56.70 229.88 53.40Q238.20 50.10 246.30 50.10Q251.10 50.10 254.10 52.95Q257.10 55.80 258.15 60.15L291.15 1.50ZM253.65 59.55Q253.65 56.10 252.38 54.00Q251.10 51.90 247.65 51.90Q243.15 51.90 238.12 56.40Q233.10 60.90 228.83 67.35Q224.55 73.80 221.78 80.93Q219.00 88.05 219.00 93.30Q219.00 96.75 220.20 98.93Q221.40 101.10 224.25 101.10Q227.85 101.10 231.38 98.85Q234.90 96.60 238.20 92.93Q241.50 89.25 244.28 84.60Q247.05 79.95 249.15 75.38Q251.25 70.80 252.45 66.60Q253.65 62.40 253.65 59.55ZM396.15 0.00Q383.55 21.00 374.47 36.08Q365.40 51.15 359.10 61.73Q352.80 72.30 349.05 78.98Q345.30 85.65 343.27 89.70Q341.25 93.75 340.57 95.93Q339.90 98.10 339.90 99.75Q339.90 101.55 340.87 102.68Q341.85 103.80 343.95 103.80Q346.50 103.80 351.15 100.80Q355.80 97.80 360.60 93.00Q368.10 85.50 373.57 78.15Q379.05 70.80 382.05 66.60L383.40 67.35Q379.95 72.30 374.02 80.18Q368.10 88.05 360.15 95.85Q353.70 102.15 348.30 104.93Q342.90 107.70 337.20 107.70Q331.35 107.70 327.97 104.10Q324.60 100.50 324.60 95.10Q324.60 93.45 325.35 91.50L325.05 91.20Q319.80 97.95 312.97 102.83Q306.15 107.70 296.85 107.70Q289.80 107.70 286.35 103.05Q282.90 98.40 282.90 92.10Q282.90 83.40 287.17 75.75Q291.45 68.10 298.20 62.40Q304.95 56.70 313.27 53.40Q321.60 50.10 329.70 50.10Q334.50 50.10 337.50 52.95Q340.50 55.80 341.55 60.15L374.55 1.50ZM337.05 59.55Q337.05 56.10 335.77 54.00Q334.50 51.90 331.05 51.90Q326.55 51.90 321.52 56.40Q316.50 60.90 312.22 67.35Q307.95 73.80 305.17 80.93Q302.40 88.05 302.40 93.30Q302.40 96.75 303.60 98.93Q304.80 101.10 307.65 101.10Q311.25 101.10 314.77 98.85Q318.30 96.60 321.60 92.93Q324.90 89.25 327.67 84.60Q330.45 79.95 332.55 75.38Q334.65 70.80 335.85 66.60Q337.05 62.40 337.05 59.55ZM406.20 50.70L400.95 58.80Q393.75 69.60 389.40 76.43Q385.05 83.25 382.65 87.53Q380.25 91.80 379.50 94.12Q378.75 96.45 378.75 98.25Q378.75 100.20 379.87 101.40Q381.00 102.60 382.80 102.60Q385.80 102.60 390.52 99.23Q395.25 95.85 400.87 89.40Q406.50 82.95 412.80 73.65Q419.10 64.35 425.25 52.50L447.00 51.90Q445.65 54.15 443.17 57.90Q440.70 61.65 437.62 66.08Q434.55 70.50 431.32 75.45Q428.10 80.40 425.47 84.98Q422.85 89.55 421.20 93.53Q419.55 97.50 419.55 100.05Q419.55 102.15 420.45 102.98Q421.35 103.80 422.85 103.80Q425.40 103.80 428.77 101.70Q432.15 99.60 435.97 96.23Q439.80 92.85 443.77 88.65Q447.75 84.45 451.27 80.25Q454.80 76.05 457.80 72.30Q460.80 68.55 462.60 66.15L463.95 67.35Q461.40 70.35 458.10 74.48Q454.80 78.60 450.97 83.10Q447.15 87.60 442.87 92.03Q438.60 96.45 434.10 99.90Q429.60 103.35 425.02 105.53Q420.45 107.70 415.95 107.70Q412.65 107.70 410.25 106.65Q407.85 105.60 406.35 103.80Q404.85 102.00 404.10 99.68Q403.35 97.35 403.35 94.95Q403.35 93.15 403.80 91.35Q404.25 89.55 404.70 88.35L404.40 88.05Q401.10 91.80 397.65 95.33Q394.20 98.85 390.45 101.62Q386.70 104.40 382.80 106.05Q378.90 107.70 374.85 107.70Q368.55 107.70 365.55 104.03Q362.55 100.35 362.55 94.65Q362.55 91.65 363.90 87.83Q365.25 84.00 367.35 79.80Q369.45 75.60 372.07 71.25Q374.70 66.90 377.10 63.08Q379.50 59.25 381.52 56.18Q383.55 53.10 384.60 51.30ZM506.40 21.60L468.90 77.55L469.20 77.85Q472.35 73.80 476.10 69.00Q479.85 64.20 484.35 60.00Q488.85 55.80 493.95 52.95Q499.05 50.10 504.75 50.10Q508.05 50.10 510.75 51.45Q513.45 52.80 515.40 55.05Q517.35 57.30 518.47 60.23Q519.60 63.15 519.60 66.30Q519.60 73.95 516.37 79.88Q513.15 85.80 509.10 90.00L509.10 90.30Q519.75 87.30 528.22 81.08Q536.70 74.85 543.60 66.00L544.80 66.75Q537.75 76.65 528.00 83.33Q518.25 90.00 507.15 92.55Q503.55 95.70 499.12 98.40Q494.70 101.10 490.20 103.20Q485.70 105.30 481.42 106.50Q477.15 107.70 473.70 107.70Q472.20 107.70 470.62 107.55Q469.05 107.40 467.70 106.80Q466.35 106.20 465.52 105.08Q464.70 103.95 464.70 102.15Q464.70 99.15 467.47 97.28Q470.25 95.40 474.22 94.28Q478.20 93.15 482.47 92.62Q486.75 92.10 489.75 91.95Q491.10 89.85 492.82 87.00Q494.55 84.15 496.20 80.78Q497.85 77.40 498.97 73.43Q500.10 69.45 500.10 65.25Q500.10 64.20 499.95 62.85Q499.80 61.50 499.20 60.23Q498.60 58.95 497.40 58.13Q496.20 57.30 494.25 57.30Q490.65 57.30 486.07 61.65Q481.50 66.00 476.77 72.23Q472.05 78.45 467.70 85.20Q463.35 91.95 459.90 96.90Q450.45 110.70 442.35 125.10Q434.25 139.50 426.15 153.60L404.70 154.50Q425.25 121.95 444.97 89.25Q464.70 56.55 484.95 23.10ZM471.90 102.75Q471.90 103.95 472.42 104.93Q472.95 105.90 474.60 105.90Q476.55 105.90 478.42 104.62Q480.30 103.35 482.02 101.48Q483.75 99.60 485.40 97.50Q487.05 95.40 488.55 93.75Q485.25 93.90 482.25 94.65Q479.25 95.40 476.92 96.53Q474.60 97.65 473.25 99.23Q471.90 100.80 471.90 102.75Z" transform="translate(112 12)" fill="#000"/>
  <path d="M0 325 C44 325 80 325 118 318" fill="none" stroke="#000" stroke-width="7" stroke-linecap="round"/>
  <path d="M42.00 105.90Q42.90 104.40 45.22 100.73Q47.55 97.05 50.47 92.33Q53.40 87.60 56.62 82.35Q59.85 77.10 62.47 72.38Q65.10 67.65 66.83 64.05Q68.55 60.45 68.55 58.95Q68.55 55.20 64.65 55.20Q62.25 55.20 58.57 57.90Q54.90 60.60 50.55 65.03Q46.20 69.45 41.55 74.93Q36.90 80.40 32.77 85.95Q28.65 91.50 25.35 96.53Q22.05 101.55 20.25 105.00L0.00 105.90Q7.20 92.55 15.75 78.98Q24.30 65.40 31.20 52.50L52.80 51.90L32.85 81.15L33.15 81.45Q36.30 77.55 40.50 72.15Q44.70 66.75 49.87 61.88Q55.05 57.00 61.12 53.55Q67.20 50.10 73.80 50.10Q79.05 50.10 82.35 52.88Q85.65 55.65 85.65 61.05Q85.65 64.35 84.90 66.68Q84.15 69.00 82.80 71.55L83.10 71.85Q85.80 68.85 89.17 65.10Q92.55 61.35 96.45 57.98Q100.35 54.60 104.70 52.35Q109.05 50.10 113.70 50.10Q118.95 50.10 122.55 53.03Q126.15 55.95 126.15 61.50Q126.15 66.75 123.00 72.23Q119.85 77.70 116.10 82.80Q112.35 87.90 109.20 92.33Q106.05 96.75 106.05 99.90Q106.05 101.55 107.02 102.68Q108.00 103.80 109.95 103.80Q112.95 103.80 116.47 101.62Q120.00 99.45 123.67 96.08Q127.35 92.70 131.03 88.43Q134.70 84.15 138.00 80.03Q141.30 75.90 144.00 72.38Q146.70 68.85 148.35 66.75L149.40 67.65Q145.50 72.75 140.10 79.95Q134.70 87.15 128.55 93.60Q122.85 99.75 116.70 103.73Q110.55 107.70 103.50 107.70Q100.20 107.70 97.72 106.58Q95.25 105.45 93.75 103.58Q92.25 101.70 91.50 99.45Q90.75 97.20 90.75 94.95Q90.75 89.55 93.75 84.23Q96.75 78.90 100.35 74.18Q103.95 69.45 106.95 65.55Q109.95 61.65 109.95 59.10Q109.95 57.15 108.82 56.18Q107.70 55.20 106.20 55.20Q103.80 55.20 100.20 57.98Q96.60 60.75 92.32 65.10Q88.05 69.45 83.55 75.00Q79.05 80.55 75.08 86.10Q71.10 91.65 67.88 96.60Q64.65 101.55 62.85 105.00ZM173.85 50.70Q172.80 52.95 170.40 56.85Q168.00 60.75 165.00 65.40Q162.00 70.05 158.85 75.08Q155.70 80.10 153.07 84.68Q150.45 89.25 148.80 92.93Q147.15 96.60 147.15 98.55Q147.15 100.35 147.90 101.78Q148.65 103.20 150.60 103.20Q153.60 103.20 157.57 100.50Q161.55 97.80 165.75 93.45Q169.95 89.10 174.00 83.78Q178.05 78.45 180.90 73.35L192.75 52.50L213.90 51.90Q206.10 65.25 198.30 78.00Q190.50 90.75 182.85 103.05L183.15 103.35Q187.80 101.70 193.95 97.88Q200.10 94.05 206.55 88.88Q213.00 83.70 219.22 77.48Q225.45 71.25 230.10 64.80L231.30 65.70Q228.60 69.45 223.65 75.00Q218.70 80.55 212.18 86.33Q205.65 92.10 197.85 97.35Q190.05 102.60 181.65 105.75Q175.80 116.55 168.45 125.55Q161.10 134.55 152.10 140.93Q143.10 147.30 132.38 150.90Q121.65 154.50 108.90 154.50Q104.10 154.50 98.77 153.30Q93.45 152.10 89.02 149.55Q84.60 147.00 81.75 142.95Q78.90 138.90 78.90 133.05Q78.90 128.40 81.07 124.80Q83.25 121.20 86.70 118.80Q90.15 116.40 94.42 115.20Q98.70 114.00 102.75 114.00Q109.05 114.00 115.65 115.35L115.65 116.70Q114.75 116.40 113.40 116.40Q111.90 116.40 110.70 116.40Q106.80 116.40 104.17 117.83Q101.55 119.25 99.97 121.58Q98.40 123.90 97.65 127.05Q96.90 130.20 96.90 133.65Q96.90 142.65 100.95 147.68Q105.00 152.70 112.05 152.70Q118.95 152.70 125.40 149.18Q131.85 145.65 137.62 140.03Q143.40 134.40 148.65 127.20Q153.90 120.00 158.55 112.58Q163.20 105.15 167.32 98.18Q171.45 91.20 175.05 86.10L174.75 85.80Q171.90 89.25 168.53 93.15Q165.15 97.05 161.03 100.28Q156.90 103.50 152.10 105.60Q147.30 107.70 141.75 107.70Q138.90 107.70 136.88 106.65Q134.85 105.60 133.50 103.80Q132.15 102.00 131.55 99.68Q130.95 97.35 130.95 94.95Q130.95 89.40 133.57 83.62Q136.20 77.85 139.72 72.23Q143.25 66.60 146.85 61.43Q150.45 56.25 152.55 51.90ZM369.15 0.00Q356.55 21.00 347.48 36.08Q338.40 51.15 332.10 61.73Q325.80 72.30 322.05 78.98Q318.30 85.65 316.28 89.70Q314.25 93.75 313.57 95.93Q312.90 98.10 312.90 99.75Q312.90 101.55 313.88 102.68Q314.85 103.80 316.95 103.80Q319.50 103.80 324.15 100.80Q328.80 97.80 333.60 93.00Q341.10 85.50 346.57 78.15Q352.05 70.80 355.05 66.60L356.40 67.35Q352.95 72.30 347.03 80.18Q341.10 88.05 333.15 95.85Q326.70 102.15 321.30 104.93Q315.90 107.70 310.20 107.70Q304.35 107.70 300.98 104.10Q297.60 100.50 297.60 95.10Q297.60 93.45 298.35 91.50L298.05 91.20Q292.80 97.95 285.98 102.83Q279.15 107.70 269.85 107.70Q262.80 107.70 259.35 103.05Q255.90 98.40 255.90 92.10Q255.90 83.40 260.18 75.75Q264.45 68.10 271.20 62.40Q277.95 56.70 286.28 53.40Q294.60 50.10 302.70 50.10Q307.50 50.10 310.50 52.95Q313.50 55.80 314.55 60.15L347.55 1.50ZM310.05 59.55Q310.05 56.10 308.78 54.00Q307.50 51.90 304.05 51.90Q299.55 51.90 294.53 56.40Q289.50 60.90 285.23 67.35Q280.95 73.80 278.18 80.93Q275.40 88.05 275.40 93.30Q275.40 96.75 276.60 98.93Q277.80 101.10 280.65 101.10Q284.25 101.10 287.78 98.85Q291.30 96.60 294.60 92.93Q297.90 89.25 300.68 84.60Q303.45 79.95 305.55 75.38Q307.65 70.80 308.85 66.60Q310.05 62.40 310.05 59.55ZM379.20 50.70L373.95 58.80Q366.75 69.60 362.40 76.43Q358.05 83.25 355.65 87.53Q353.25 91.80 352.50 94.12Q351.75 96.45 351.75 98.25Q351.75 100.20 352.88 101.40Q354.00 102.60 355.80 102.60Q358.80 102.60 363.52 99.23Q368.25 95.85 373.88 89.40Q379.50 82.95 385.80 73.65Q392.10 64.35 398.25 52.50L420.00 51.90Q418.65 54.15 416.18 57.90Q413.70 61.65 410.62 66.08Q407.55 70.50 404.32 75.45Q401.10 80.40 398.47 84.98Q395.85 89.55 394.20 93.53Q392.55 97.50 392.55 100.05Q392.55 102.15 393.45 102.98Q394.35 103.80 395.85 103.80Q398.40 103.80 401.77 101.70Q405.15 99.60 408.97 96.23Q412.80 92.85 416.77 88.65Q420.75 84.45 424.27 80.25Q427.80 76.05 430.80 72.30Q433.80 68.55 435.60 66.15L436.95 67.35Q434.40 70.35 431.10 74.48Q427.80 78.60 423.97 83.10Q420.15 87.60 415.88 92.03Q411.60 96.45 407.10 99.90Q402.60 103.35 398.02 105.53Q393.45 107.70 388.95 107.70Q385.65 107.70 383.25 106.65Q380.85 105.60 379.35 103.80Q377.85 102.00 377.10 99.68Q376.35 97.35 376.35 94.95Q376.35 93.15 376.80 91.35Q377.25 89.55 377.70 88.35L377.40 88.05Q374.10 91.80 370.65 95.33Q367.20 98.85 363.45 101.62Q359.70 104.40 355.80 106.05Q351.90 107.70 347.85 107.70Q341.55 107.70 338.55 104.03Q335.55 100.35 335.55 94.65Q335.55 91.65 336.90 87.83Q338.25 84.00 340.35 79.80Q342.45 75.60 345.07 71.25Q347.70 66.90 350.10 63.08Q352.50 59.25 354.52 56.18Q356.55 53.10 357.60 51.30ZM533.10 0.00Q520.50 21.00 511.43 36.08Q502.35 51.15 496.05 61.73Q489.75 72.30 486.00 78.98Q482.25 85.65 480.22 89.70Q478.20 93.75 477.52 95.93Q476.85 98.10 476.85 99.75Q476.85 101.55 477.82 102.68Q478.80 103.80 480.90 103.80Q483.45 103.80 488.10 100.80Q492.75 97.80 497.55 93.00Q505.05 85.50 510.52 78.15Q516.00 70.80 519.00 66.60L520.35 67.35Q516.90 72.30 510.97 80.18Q505.05 88.05 497.10 95.85Q490.65 102.15 485.25 104.93Q479.85 107.70 474.15 107.70Q468.30 107.70 464.93 104.10Q461.55 100.50 461.55 95.10Q461.55 93.45 462.30 91.50L462.00 91.20Q456.75 97.95 449.93 102.83Q443.10 107.70 433.80 107.70Q426.75 107.70 423.30 103.05Q419.85 98.40 419.85 92.10Q419.85 83.40 424.12 75.75Q428.40 68.10 435.15 62.40Q441.90 56.70 450.23 53.40Q458.55 50.10 466.65 50.10Q471.45 50.10 474.45 52.95Q477.45 55.80 478.50 60.15L511.50 1.50ZM474.00 59.55Q474.00 56.10 472.73 54.00Q471.45 51.90 468.00 51.90Q463.50 51.90 458.48 56.40Q453.45 60.90 449.18 67.35Q444.90 73.80 442.12 80.93Q439.35 88.05 439.35 93.30Q439.35 96.75 440.55 98.93Q441.75 101.10 444.60 101.10Q448.20 101.10 451.73 98.85Q455.25 96.60 458.55 92.93Q461.85 89.25 464.62 84.60Q467.40 79.95 469.50 75.38Q471.60 70.80 472.80 66.60Q474.00 62.40 474.00 59.55ZM585.00 67.35Q581.55 72.30 577.27 77.33Q573.00 82.35 567.60 87.60Q557.25 97.50 547.50 102.60Q537.75 107.70 525.75 107.70Q515.40 107.70 510.00 102.90Q504.60 98.10 504.60 88.95Q504.60 81.00 509.10 73.95Q513.60 66.90 520.42 61.65Q527.25 56.40 535.27 53.25Q543.30 50.10 550.50 50.10Q557.70 50.10 562.35 52.43Q567.00 54.75 567.00 60.00Q567.00 65.25 561.90 69.15Q556.80 73.05 549.82 75.83Q542.85 78.60 535.80 80.33Q528.75 82.05 524.70 82.95Q524.40 84.45 524.25 85.95Q524.10 87.45 524.10 88.95Q524.10 91.65 524.70 94.28Q525.30 96.90 526.72 98.85Q528.15 100.80 530.47 102.00Q532.80 103.20 536.25 103.20Q543.30 103.20 551.40 98.03Q559.50 92.85 567.75 85.05Q573.00 79.95 576.97 75.15Q580.95 70.35 583.65 66.45ZM552.00 56.10Q552.00 51.90 547.80 51.90Q544.50 51.90 540.67 55.28Q536.85 58.65 533.62 63.38Q530.40 68.10 528.00 73.05Q525.60 78.00 525.00 81.30Q531.30 79.95 536.32 77.18Q541.35 74.40 544.87 70.95Q548.40 67.50 550.20 63.60Q552.00 59.70 552.00 56.10ZM645.75 67.20Q640.20 75.45 633.97 82.80Q627.75 90.15 620.10 95.70Q612.45 101.25 603.00 104.48Q593.55 107.70 581.40 107.70Q576.90 107.70 572.92 106.80Q568.95 105.90 566.10 103.95Q563.25 102.00 561.60 98.93Q559.95 95.85 559.95 91.65Q559.95 86.10 563.47 82.88Q567.00 79.65 571.65 79.65Q574.80 79.65 577.05 81.45Q579.30 83.25 579.30 86.85Q579.30 90.15 577.35 91.80Q575.40 93.45 573.00 93.45Q571.20 93.45 570.00 93.00Q569.25 94.20 569.25 95.85Q569.25 100.65 571.80 103.28Q574.35 105.90 579.30 105.90Q585.75 105.90 588.90 102.15Q592.05 98.40 592.05 93.15Q592.05 90.00 590.10 87.00Q588.15 84.00 585.82 80.93Q583.50 77.85 581.55 74.78Q579.60 71.70 579.60 68.55Q579.60 64.95 581.25 61.65Q582.90 58.35 586.12 55.73Q589.35 53.10 594.00 51.60Q598.65 50.10 604.65 50.10Q613.35 50.10 618.82 53.03Q624.30 55.95 624.30 61.50Q624.30 65.70 621.45 68.33Q618.60 70.95 614.70 70.95Q611.25 70.95 608.25 69.15Q609.30 67.50 609.90 65.70Q610.50 63.90 610.50 61.65Q610.50 57.90 608.77 54.90Q607.05 51.90 603.15 51.90Q599.70 51.90 597.75 54.30Q595.80 56.70 595.80 60.60Q595.80 64.35 598.05 67.58Q600.30 70.80 602.92 73.95Q605.55 77.10 607.80 80.55Q610.05 84.00 610.05 88.35Q610.05 93.45 607.72 96.98Q605.40 100.50 600.60 103.20L600.90 103.50Q607.35 101.70 613.57 97.88Q619.80 94.05 625.50 88.95Q631.20 83.85 636.07 77.93Q640.95 72.00 644.70 66.00ZM660.90 85.20Q663.45 81.45 666.82 78.75Q670.20 76.05 673.87 73.58Q677.55 71.10 681.07 68.62Q684.60 66.15 687.45 63.08Q690.30 60.00 692.02 56.10Q693.75 52.20 693.75 46.80Q693.75 42.90 692.40 39.38Q691.05 35.85 688.72 33.23Q686.40 30.60 683.17 29.10Q679.95 27.60 676.20 27.60Q670.50 27.60 666.82 31.65Q663.15 35.70 663.15 42.00Q663.15 46.20 665.32 49.80Q667.50 53.40 671.40 53.40Q676.50 53.40 678.30 50.48Q680.10 47.55 680.25 43.50L681.75 43.50Q681.75 46.80 680.85 50.55Q679.95 54.30 677.92 57.45Q675.90 60.60 672.67 62.70Q669.45 64.80 664.80 64.80Q659.55 64.80 655.95 60.83Q652.35 56.85 652.35 50.40Q652.35 45.15 654.90 40.28Q657.45 35.40 662.10 31.58Q666.75 27.75 673.50 25.43Q680.25 23.10 688.50 23.10Q693.75 23.10 698.10 24.68Q702.45 26.25 705.75 29.18Q709.05 32.10 710.85 36.15Q712.65 40.20 712.65 45.15Q712.65 50.55 710.02 54.83Q707.40 59.10 703.35 62.40Q699.30 65.70 694.50 67.95Q689.70 70.20 685.20 71.85Q682.05 72.90 678.67 74.10Q675.30 75.30 672.15 76.88Q669.00 78.45 666.30 80.62Q663.60 82.80 661.65 85.80ZM652.65 86.70Q657.00 86.70 660.07 89.78Q663.15 92.85 663.15 97.20Q663.15 101.55 660.07 104.62Q657.00 107.70 652.65 107.70Q648.30 107.70 645.22 104.62Q642.15 101.55 642.15 97.20Q642.15 92.85 645.22 89.78Q648.30 86.70 652.65 86.70Z" transform="translate(112 220)" fill="#000"/>
</svg>